<?xml version="1.0" encoding="utf-8"?>
<?xml-stylesheet type="text/xsl" href="rss1.xsl"?>
<rss version="2.0" xmlns:atom="http://www.w3.org/2005/Atom" xmlns:content="http://purl.org/rss/1.0/modules/content/" xmlns:dc="http://purl.org/dc/elements/1.1/" xmlns:media="http://search.yahoo.com/mrss/">
<channel>
 <title>Getty</title>
 <link>http://www.gettyimg.com/</link>
 <atom:link href="http://www.gettyimg.com/" rel="self" type="application/rss+xml" />

 
                <item>
                <title><![CDATA[【Requests】[REQ VID] - Whitney Houston: I Wanna Dance with Somebody (2022) 4K 2160p WEB_DL]]></title>
                <link><![CDATA[https://sharemania.us/threads/whitney-houston-i-wanna-dance-with-somebody-2022-4k-2160p-web_dl.246785/]]></link>
                <description><![CDATA[<article>
<blockquote class="messageText SelectQuoteContainer ugc baseHtml">
Please.
<div class="messageTextEndMarker">&nbsp;</div>
</blockquote>
</article>]]></description>
                <author><![CDATA[wdsongama]]></author>
                </item>

                
                <item>
                <title><![CDATA[【Albums (lossless)】FLAC - 2005 • Banda Calypso — Volume 8 | FLAC 16bit-44.1kHz]]></title>
                <link><![CDATA[https://sharemania.us/threads/2005-%E2%80%A2-banda-calypso-%E2%80%94-volume-8-flac-16bit-44-1khz.246784/]]></link>
                <description><![CDATA[<article>
<blockquote class="messageText SelectQuoteContainer ugc baseHtml">
<b>2005 • Banda Calypso — <span style="font-size: 22px"><span style="color: #666600">Volume 8</span> </span></b><span style="color: rgb(128, 128, 128)">FLAC 16bit-44.1kHz</span><br>
<img src="https://i.ibb.co/0CV3FgL/Cover.jpg" class="bbCodeImage LbImage" alt="[​IMG]" data-url="https://i.ibb.co/0CV3FgL/Cover.jpg" style=""><br>
<div class="ToggleTriggerAnchor bbCodeSpoilerContainer">
<button type="button" class="button bbCodeSpoilerButton ToggleTrigger Tooltip JsOnly" data-target="> .SpoilerTarget"><span>Spoiler: <span class="SpoilerTitle">TRACKLIST • 2005 — Banda Calypso — Volume 8</span></span></button>
<div class="SpoilerTarget bbCodeSpoilerText">01. Tchau Pra Você • 3:19"<br>
02. Tô Carente • 3:14"<br>
03. Passe de Mágica • 3:34"<br>
04. No Bate Papo • 2:58"<br>
05. Ouvindo o Rádio • 3:13"<br>
06. Pra Me Conquistar • 2:56"<br>
07. Nem Sim, Nem Não • 3:59"<br>
08. Mistura de Amor • 3:28"<br>
09. Não, Não • 3:33"<br>
10. Isso é Calypso • 2:53"<br>
11. Luz do Coração (Deixa Vibrar) • 2:56"<br>
12. Esqueça Meu Coração • 3:23"<br>
13. Faço Tudo Por Você • 4:14"<br>
14. Perdeu o Trono • 3:55"<br>
15. Sua Fantasia • 3:23"<br>
16. No Coração de Uma Mulher • 3:13"<br>
17. Um Novo Ser • 3:51"</div>
</div>
<div class="bbCodeBlock bbCodeVfcHH HiddenContent">
<div class="attribution type">Hidden Content:</div>
<blockquote>You must reply before you can see the hidden data contained here.</blockquote>
</div><br>
<b>&gt;&gt;&gt;That's all folks!&lt;&lt;&lt;</b><br>
<span style="color: #808080">Isso é tudo, "chifrudos"!</span>
<div class="messageTextEndMarker">&nbsp;</div>
</blockquote>
</article>]]></description>
                <author><![CDATA[mcarloss88n]]></author>
                </item>

                
                <item>
                <title><![CDATA[【Interviews / TV shows / Others】HDTV - An NBC News Special with Hoda Kotb - Celine's Story (6-11-2024) 1080i HDTV HDMania]]></title>
                <link><![CDATA[https://sharemania.us/threads/an-nbc-news-special-with-hoda-kotb-celines-story-6-11-2024-1080i-hdtv-hdmania.246786/]]></link>
                <description><![CDATA[<article>
<blockquote class="messageText SelectQuoteContainer ugc baseHtml">
<div style="text-align: center"><img src="https://i.imgur.com/SqJKco7.jpeg" class="bbCodeImage LbImage" alt="[​IMG]" data-url="https://i.imgur.com/SqJKco7.jpeg" style=""><br>
<br>
<div class="ToggleTriggerAnchor bbCodeSpoilerContainer">
<button type="button" class="button bbCodeSpoilerButton ToggleTrigger Tooltip JsOnly" data-target="> .SpoilerTarget"><span>Spoiler: <span class="SpoilerTitle">MediaInfo.</span></span></button>
<div class="SpoilerTarget bbCodeSpoilerText">General<br>
ID : 1 (0x1)<br>
Complete name : An NBC News Special with Hoda Kotb - Celine's Story (6-11-2024) 1080i HDTV HDMania.ts<br>
Format : MPEG-TS<br>
File size : 1.72 GiB<br>
Duration : 42 min 8 s<br>
Overall bit rate mode : Variable<br>
Overall bit rate : 5 853 kb/s<br>
<br>
Video<br>
ID : 224 (0xE0)<br>
Menu ID : 1 (0x1)<br>
Format : MPEG Video<br>
Format version : Version 2<br>
Format profile : Main@High<br>
Format settings : CustomMatrix / BVOP<br>
Format settings, BVOP : Yes<br>
Format settings, Matrix : Custom<br>
Format settings, GOP : Variable<br>
Format settings, picture st : Frame<br>
Codec ID : 2<br>
Duration : 42 min 8 s<br>
Bit rate mode : Variable<br>
Bit rate : 5 175 kb/s<br>
Maximum bit rate : 17.6 Mb/s<br>
Width : 1 920 pixels<br>
Height : 1 080 pixels<br>
Display aspect ratio : 16:9<br>
Active Format Description : Full frame 16:9 image<br>
Frame rate : 29.970 (30000/1001) FPS<br>
Color space : YUV<br>
Chroma subsampling : 4:2:0<br>
Bit depth : 8 bits<br>
Scan type : Interlaced<br>
Scan order : Top Field First<br>
Compression mode : Lossy<br>
Bits/(Pixel*Frame) : 0.083<br>
Time code of first frame : 00:00:00;00<br>
Time code source : Group of pictures header<br>
GOP, Open/Closed : Open<br>
GOP, Open/Closed of first f : Closed<br>
Stream size : 1.52 GiB (88%)<br>
<br>
Audio<br>
ID : 4097 (0x1001)<br>
Menu ID : 1 (0x1)<br>
Format : AC-3<br>
Format/Info : Audio Coding 3<br>
Commercial name : Dolby Digital<br>
Codec ID : 129<br>
Duration : 42 min 8 s<br>
Bit rate mode : Constant<br>
Bit rate : 384 kb/s<br>
Channel(s) : 6 channels<br>
Channel layout : L R C LFE Ls Rs<br>
Sampling rate : 48.0 kHz<br>
Frame rate : 31.250 FPS (1536 SPF)<br>
Bit depth : 16 bits<br>
Compression mode : Lossy<br>
Delay relative to video : 23 ms<br>
Stream size : 116 MiB (7%)<br>
Language : English<br>
Service kind : Complete Main<br>
<br>
Text #1<br>
ID : 224 (0xE0)-CC1<br>
Menu ID : 1 (0x1)<br>
Format : EIA-608<br>
Muxing mode : A/53 / DTVCC Transport<br>
Muxing mode, more info : Muxed in Video #1<br>
Duration : 42 min 8 s<br>
Bit rate mode : Constant<br>
Stream size : 0.00 Byte (0%)<br>
CaptionServiceName : CC1<br>
<br>
Text #2<br>
ID : 224 (0xE0)-CC3<br>
Menu ID : 1 (0x1)<br>
Format : EIA-608<br>
Muxing mode : A/53 / DTVCC Transport<br>
Muxing mode, more info : Muxed in Video #1<br>
Duration : 42 min 8 s<br>
Bit rate mode : Constant<br>
Stream size : 0.00 Byte (0%)<br>
CaptionServiceName : CC3<br>
<br>
Text #3<br>
ID : 224 (0xE0)-1<br>
Menu ID : 1 (0x1)<br>
Format : EIA-708<br>
Muxing mode : A/53 / DTVCC Transport<br>
Muxing mode, more info : Muxed in Video #1<br>
Duration : 42 min 8 s<br>
Bit rate mode : Constant<br>
Stream size : 0.00 Byte (0%)<br>
<br>
Text #4<br>
ID : 224 (0xE0)-3<br>
Menu ID : 1 (0x1)<br>
Format : EIA-708<br>
Muxing mode : A/53 / DTVCC Transport<br>
Muxing mode, more info : Muxed in Video #1<br>
Duration : 42 min 8 s<br>
Bit rate mode : Constant<br>
Stream size : 0.00 Byte (0%)</div>
</div><br>
<br>
MEGA link:<br>
<div class="bbCodeBlock bbCodeVfcHH HiddenContent">
<div class="attribution type">Hidden Content:</div>
<blockquote>You must either reply or click 'Like' to see the hidden information contained here.</blockquote>
</div><b>===============<br>
Capped by Me<br>
===============</b><br>
I delete my recordings after uploading. In case of deletion from MEGA due to any reason, I won't have them anymore.​</div>
<div class="messageTextEndMarker">&nbsp;</div>
</blockquote>
</article>]]></description>
                <author><![CDATA[Scherzyboy]]></author>
                </item>

                </channel></rss>